<svg width="22" height="22" viewBox="0 0 22 22" fill="none" xmlns="http://www.w3.org/2000/svg">
<g id="EyeSlash">
<path id="Vector" d="M4.125 3.4375L17.875 18.5625" stroke="#1B3144" stroke-width="1.5" stroke-linecap="round" stroke-linejoin="round"/>
<path id="Vector_2" d="M13.3124 13.5438C12.6378 14.1571 11.7471 14.4773 10.8364 14.434C9.92565 14.3906 9.06943 13.9873 8.4561 13.3126C7.84276 12.638 7.52255 11.7473 7.5659 10.8366C7.60926 9.92585 8.01262 9.06963 8.68727 8.4563" stroke="#1B3144" stroke-width="2" stroke-linecap="round" stroke-linejoin="round"/>
<path id="Vector_3" d="M11.647 7.62354C12.3778 7.76349 13.0435 8.13679 13.544 8.68738C14.0445 9.23796 14.3529 9.93609 14.4228 10.6769" stroke="#1B3144" stroke-width="2" stroke-linecap="round" stroke-linejoin="round"/>
<path id="Vector_4" d="M17.9273 14.532C19.8007 12.8545 20.6248 11 20.6248 11C20.6248 11 17.8748 4.81251 10.9998 4.81251C10.4045 4.8117 9.81008 4.85998 9.22266 4.95689" stroke="#1B3144" stroke-width="2" stroke-linecap="round" stroke-linejoin="round"/>
<path id="Vector_5" d="M6.35938 5.89526C2.8557 7.66901 1.375 11 1.375 11C1.375 11 4.125 17.1875 11 17.1875C12.6109 17.2001 14.2017 16.8289 15.6406 16.1046" stroke="#1B3144" stroke-width="2" stroke-linecap="round" stroke-linejoin="round"/>
</g>
</svg>
